<?xml version="1.0" standalone="no"?>
<!DOCTYPE svg PUBLIC "-//W3C//DTD SVG 20010904//EN"
 "http://www.w3.org/TR/2001/REC-SVG-20010904/DTD/svg10.dtd">
<svg version="1.0" xmlns="http://www.w3.org/2000/svg"
 width="2000.000000pt" height="2000.000000pt" viewBox="0 0 2000.000000 2000.000000"
 preserveAspectRatio="xMidYMid meet">

<g transform="translate(0.000000,2000.000000) scale(0.100000,-0.100000)"
fill="#000000" stroke="none">
<path d="M10040 12681 c0 -14 7 -21 20 -21 11 0 20 -4 20 -9 0 -5 9 -13 21
-16 11 -4 59 -29 106 -56 47 -27 87 -48 89 -46 2 2 -40 30 -94 62 -53 32 -112
69 -129 82 -32 23 -33 23 -33 4z"/>
<path d="M10040 12540 c0 -13 3 -20 6 -17 6 6 82 -32 173 -86 19 -12 31 -16
28 -10 -4 6 -44 33 -90 58 -45 26 -90 54 -99 63 -17 14 -18 13 -18 -8z"/>
<path d="M10354 12495 c11 -8 24 -15 30 -15 5 0 1 7 -10 15 -10 8 -23 14 -29
14 -5 0 -1 -6 9 -14z"/>
<path d="M10419 12461 c13 -12 28 -21 35 -21 12 0 -5 14 -39 31 -16 8 -15 6 4
-10z"/>
<path d="M12159 11966 l-194 -113 -3 -300 -2 -300 25 -11 c14 -7 28 -12 30
-12 3 0 5 132 5 294 l0 294 103 60 c56 33 136 78 177 100 41 23 84 47 94 55
19 14 19 15 -11 30 l-30 16 -194 -113z"/>
<path d="M12643 11677 l-192 -112 -1 -295 0 -296 30 -17 30 -18 2 298 3 297
180 104 c99 57 187 107 195 112 13 8 12 11 -5 24 -11 8 -27 15 -35 15 -8 0
-102 -51 -207 -112z"/>
<path d="M7108 11764 c-16 -8 -28 -21 -28 -29 0 -19 216 -451 229 -459 13 -8
311 165 311 181 0 19 -22 61 -34 66 -7 3 -50 -18 -96 -45 -47 -28 -97 -56
-111 -64 l-26 -13 -94 189 c-62 126 -98 190 -109 190 -8 -1 -27 -8 -42 -16z"/>
<path d="M6716 11537 l-28 -23 116 -232 c64 -128 120 -232 125 -232 12 0 282
158 300 175 11 11 10 18 -5 44 -10 17 -24 31 -32 31 -7 0 -58 -27 -114 -59
-56 -33 -105 -58 -108 -56 -4 3 -49 88 -99 190 -65 130 -98 185 -109 185 -9 0
-30 -10 -46 -23z"/>
<path d="M12590 11210 c0 -148 2 -270 4 -270 2 0 11 -3 20 -6 13 -5 15 27 16
264 0 239 -1 270 -16 276 -8 3 -18 6 -20 6 -2 0 -4 -121 -4 -270z"/>
<path d="M6533 11430 c-18 -11 -33 -22 -33 -25 0 -9 230 -465 235 -465 16 0
75 36 75 46 0 23 -222 464 -234 464 -6 0 -26 -9 -43 -20z"/>
<path d="M6283 11285 c-44 -19 -221 -124 -228 -135 -3 -5 47 -113 110 -240 96
-191 119 -231 133 -225 47 18 244 140 262 162 52 67 45 169 -16 223 -19 16
-41 30 -49 30 -11 0 -15 13 -15 53 0 113 -95 177 -197 132z m89 -102 c21 -19
23 -52 6 -76 -15 -19 -126 -87 -143 -87 -15 0 -58 91 -48 101 21 20 130 78
147 79 11 0 28 -7 38 -17z m118 -205 c13 -25 13 -31 0 -55 -13 -23 -140 -112
-160 -113 -3 0 -14 19 -24 43 -11 23 -23 49 -27 58 -6 12 9 25 64 57 85 50
123 52 147 10z"/>
<path d="M13875 10469 c28 -16 100 -59 160 -96 61 -36 124 -73 140 -82 17 -9
32 -19 33 -23 2 -5 10 -8 18 -8 8 0 14 -4 14 -10 0 -5 6 -10 13 -10 8 0 40
-17 73 -38 32 -21 87 -55 122 -75 53 -31 62 -34 62 -18 0 20 -93 76 -110 66
-6 -4 -9 -2 -8 5 2 6 -24 25 -57 44 -33 18 -77 42 -97 54 -21 12 -68 38 -105
58 -37 20 -93 52 -124 70 -31 19 -59 34 -62 34 -4 0 -29 14 -57 30 -28 17 -54
30 -58 30 -4 -1 16 -14 43 -31z"/>
<path d="M14420 10295 c0 -6 73 -55 82 -55 21 0 3 18 -37 38 -25 12 -45 20
-45 17z"/>
<path d="M5558 9981 c-58 -16 -150 -45 -203 -66 -105 -41 -280 -149 -269 -167
4 -6 3 -8 -2 -5 -6 3 -29 -12 -54 -34 -24 -21 -42 -39 -39 -39 2 0 27 7 54 16
28 8 57 17 65 19 8 2 35 8 60 14 60 14 526 35 618 27 l73 -6 -12 23 c-19 35
-92 141 -102 148 -5 3 -9 10 -9 15 -2 19 -49 84 -61 84 -6 -1 -60 -14 -119
-29z"/>
<path d="M7320 9535 c0 -2 14 -53 30 -113 17 -59 37 -153 45 -208 l14 -99 -3
130 c-4 117 -7 138 -36 213 -17 45 -36 82 -41 82 -5 0 -9 -2 -9 -5z"/>
<path d="M7461 9383 c6 -15 14 -46 19 -68 l8 -40 0 40 c0 51 -10 87 -26 93 -9
3 -10 -3 -1 -25z"/>
<path d="M7252 9341 c4 -43 43 -120 54 -108 3 2 -4 28 -16 56 -11 28 -20 63
-20 76 0 14 -5 25 -11 25 -8 0 -10 -16 -7 -49z"/>
<path d="M6620 9030 c-146 -10 -328 -22 -405 -26 l-140 -8 110 -8 c61 -4 189
-5 285 -3 96 2 299 7 450 11 194 5 291 3 329 -5 51 -11 144 -53 241 -108 62
-35 322 -206 340 -224 38 -36 141 -99 176 -108 116 -28 165 -48 181 -71 50
-73 221 -207 251 -195 7 2 11 1 8 -4 -9 -14 70 -41 141 -50 35 -4 63 -6 63 -4
0 2 -24 28 -52 57 -79 80 -113 154 -113 242 0 61 4 76 28 113 16 24 27 44 25
46 -2 2 -29 -5 -61 -15 -174 -58 -289 -46 -612 62 -131 44 -162 60 -316 162
-113 75 -220 129 -290 145 -64 15 -334 11 -639 -9z"/>
<path d="M5190 9006 c-119 -34 -191 -89 -307 -235 -154 -193 -181 -235 -162
-247 8 -5 77 59 198 184 217 224 237 236 397 252 55 5 125 10 157 10 31 0 57
5 57 10 0 6 -2 10 -4 10 -2 0 -40 7 -83 15 -93 18 -191 18 -253 1z"/>
<path d="M7387 8783 c-4 -3 7 -22 23 -42 73 -91 118 -244 121 -416 l2 -90 10
90 c14 122 -1 224 -47 318 -34 70 -98 152 -109 140z"/>
<path d="M7555 8663 c25 -59 34 -93 35 -128 1 -22 5 -58 10 -80 7 -30 8 -15 6
65 -3 105 -14 143 -44 155 -10 4 -12 0 -7 -12z"/>
<path d="M7375 8623 c3 -16 20 -49 36 -76 16 -26 29 -50 29 -53 0 -3 6 -12 14
-19 26 -26 24 -3 -3 43 -14 26 -35 66 -45 90 -21 47 -42 57 -31 15z"/>
<path d="M5360 8281 c-74 -23 -133 -68 -173 -133 -42 -68 -8 -76 70 -17 76 57
122 75 243 94 58 9 120 18 138 21 91 14 -17 44 -155 43 -54 0 -109 -4 -123 -8z"/>
<path d="M6320 8131 c0 -7 70 -51 125 -79 96 -47 393 -134 608 -177 9 -2 81
-6 160 -9 78 -3 192 -9 252 -12 l111 -6 55 -52 c30 -28 97 -90 149 -138 l95
-87 -17 -29 -17 -29 38 -21 c81 -46 261 -184 305 -234 l47 -53 -20 56 c-24 72
-53 116 -136 209 -37 41 -81 93 -98 114 -128 160 -324 345 -407 385 -61 29
-87 30 -510 20 -205 -4 -285 5 -463 52 -59 16 -146 44 -192 63 -47 18 -85 31
-85 27z"/>
<path d="M7370 7538 c-27 -100 -40 -185 -39 -258 0 -67 13 -43 23 45 8 63 31
200 39 225 13 39 17 70 8 70 -5 0 -19 -37 -31 -82z"/>
<path d="M7247 7466 c-19 -72 -21 -86 -9 -86 4 0 13 24 20 53 6 28 14 62 18
75 3 12 2 22 -3 22 -5 0 -17 -29 -26 -64z"/>
<path d="M7460 7477 c0 -25 -7 -64 -15 -87 -21 -59 -18 -72 6 -26 24 45 37
140 20 150 -7 5 -11 -7 -11 -37z"/>
<path d="M5495 7349 c-66 -27 -115 -65 -115 -90 0 -26 26 -25 91 5 30 14 86
30 124 35 121 19 135 22 135 30 0 14 -56 30 -123 36 -49 4 -73 1 -112 -16z"/>
<path d="M6220 7353 c0 -13 54 -99 82 -132 74 -86 228 -174 335 -192 65 -10
410 -51 578 -69 121 -12 186 -34 320 -109 44 -24 81 -45 83 -46 1 -1 -7 -28
-18 -60 -36 -103 -33 -110 82 -195 55 -41 106 -77 112 -79 6 -2 14 -9 18 -15
9 -13 50 23 41 37 -3 5 -2 7 4 4 13 -8 55 37 46 49 -5 5 -4 6 1 2 12 -10 38
11 29 25 -3 5 -2 7 4 4 11 -7 56 36 48 46 -3 4 -2 5 2 2 10 -8 33 16 26 28 -3
5 -2 7 4 4 5 -3 27 12 49 34 21 22 31 37 22 34 -10 -4 -18 -10 -18 -14 0 -4
-6 -8 -12 -8 -19 -1 -42 -7 -48 -14 -10 -11 -127 -39 -166 -39 -69 0 -134 61
-134 126 0 9 -7 31 -16 49 -12 26 -34 42 -117 83 -272 134 -249 128 -662 163
-367 30 -457 63 -615 223 -60 62 -80 76 -80 59z"/>
<path d="M7157 6625 c-18 -39 -62 -253 -53 -262 10 -11 15 2 31 70 38 169 44
193 50 210 13 32 -11 17 -28 -18z"/>
<path d="M7046 6561 c-18 -80 -20 -121 -6 -121 6 0 10 1 10 3 1 1 7 38 15 82
17 95 18 105 6 105 -5 0 -17 -31 -25 -69z"/>
<path d="M7250 6511 c0 -6 -11 -24 -25 -39 -30 -32 -33 -47 -5 -30 21 14 46
65 36 75 -3 3 -6 1 -6 -6z"/>
</g>
</svg>
